<mxfile host="app.diagrams.net" modified="2024-06-18T14:29:22.811Z" agent="Mozilla/5.0 (Windows NT 10.0; Win64; x64) AppleWebKit/537.36 (KHTML, like Gecko) Chrome/126.0.0.0 Safari/537.36 Edg/126.0.0.0" etag="-hkL9mr4OwiEKJG9lor7" version="24.5.5" type="device">
  <diagram name="Seite-1" id="BcxyVCiJq2_XgvV3WHYR">
    <mxGraphModel dx="1895" dy="973" grid="1" gridSize="10" guides="1" tooltips="1" connect="1" arrows="1" fold="1" page="1" pageScale="1" pageWidth="827" pageHeight="1169" math="0" shadow="0">
      <root>
        <mxCell id="0" />
        <mxCell id="1" parent="0" />
        <mxCell id="lyRp5M7gOsi5y-L0EEFk-4" value="" style="edgeStyle=orthogonalEdgeStyle;rounded=0;orthogonalLoop=1;jettySize=auto;html=1;" edge="1" parent="1" source="lyRp5M7gOsi5y-L0EEFk-1" target="lyRp5M7gOsi5y-L0EEFk-3">
          <mxGeometry relative="1" as="geometry" />
        </mxCell>
        <mxCell id="lyRp5M7gOsi5y-L0EEFk-1" value="Start" style="ellipse;whiteSpace=wrap;html=1;fillColor=#f8cecc;strokeColor=#b85450;" vertex="1" parent="1">
          <mxGeometry x="373" y="20" width="82" height="60" as="geometry" />
        </mxCell>
        <mxCell id="lyRp5M7gOsi5y-L0EEFk-7" value="" style="edgeStyle=orthogonalEdgeStyle;rounded=0;orthogonalLoop=1;jettySize=auto;html=1;" edge="1" parent="1" source="lyRp5M7gOsi5y-L0EEFk-3" target="lyRp5M7gOsi5y-L0EEFk-6">
          <mxGeometry relative="1" as="geometry" />
        </mxCell>
        <mxCell id="lyRp5M7gOsi5y-L0EEFk-3" value="Eingabe index: int" style="shape=parallelogram;perimeter=parallelogramPerimeter;whiteSpace=wrap;html=1;fixedSize=1;fillColor=#dae8fc;strokeColor=#6c8ebf;" vertex="1" parent="1">
          <mxGeometry x="346" y="110" width="136" height="40" as="geometry" />
        </mxCell>
        <mxCell id="lyRp5M7gOsi5y-L0EEFk-9" value="" style="edgeStyle=orthogonalEdgeStyle;rounded=0;orthogonalLoop=1;jettySize=auto;html=1;" edge="1" parent="1" source="lyRp5M7gOsi5y-L0EEFk-6" target="lyRp5M7gOsi5y-L0EEFk-8">
          <mxGeometry relative="1" as="geometry" />
        </mxCell>
        <mxCell id="lyRp5M7gOsi5y-L0EEFk-6" value="Eingabe precision: int" style="shape=parallelogram;perimeter=parallelogramPerimeter;whiteSpace=wrap;html=1;fixedSize=1;fillColor=#dae8fc;strokeColor=#6c8ebf;" vertex="1" parent="1">
          <mxGeometry x="338" y="180" width="151" height="40" as="geometry" />
        </mxCell>
        <mxCell id="lyRp5M7gOsi5y-L0EEFk-12" value="" style="edgeStyle=orthogonalEdgeStyle;rounded=0;orthogonalLoop=1;jettySize=auto;html=1;" edge="1" parent="1" source="lyRp5M7gOsi5y-L0EEFk-8" target="lyRp5M7gOsi5y-L0EEFk-11">
          <mxGeometry relative="1" as="geometry" />
        </mxCell>
        <mxCell id="lyRp5M7gOsi5y-L0EEFk-8" value="getcontext().prec = precision" style="whiteSpace=wrap;html=1;fillColor=#f5f5f5;strokeColor=#666666;fontColor=#333333;" vertex="1" parent="1">
          <mxGeometry x="323" y="250" width="182" height="40" as="geometry" />
        </mxCell>
        <mxCell id="lyRp5M7gOsi5y-L0EEFk-14" value="" style="edgeStyle=orthogonalEdgeStyle;rounded=0;orthogonalLoop=1;jettySize=auto;html=1;" edge="1" parent="1" source="lyRp5M7gOsi5y-L0EEFk-11" target="lyRp5M7gOsi5y-L0EEFk-13">
          <mxGeometry relative="1" as="geometry" />
        </mxCell>
        <mxCell id="lyRp5M7gOsi5y-L0EEFk-11" value="pi_approx = 4" style="whiteSpace=wrap;html=1;fillColor=#f5f5f5;fontColor=#333333;strokeColor=#666666;" vertex="1" parent="1">
          <mxGeometry x="354" y="320" width="120" height="40" as="geometry" />
        </mxCell>
        <mxCell id="lyRp5M7gOsi5y-L0EEFk-16" value="" style="edgeStyle=orthogonalEdgeStyle;rounded=0;orthogonalLoop=1;jettySize=auto;html=1;" edge="1" parent="1" source="lyRp5M7gOsi5y-L0EEFk-13" target="lyRp5M7gOsi5y-L0EEFk-15">
          <mxGeometry relative="1" as="geometry" />
        </mxCell>
        <mxCell id="lyRp5M7gOsi5y-L0EEFk-13" value="a_n = 8/15" style="whiteSpace=wrap;html=1;fillColor=#f5f5f5;fontColor=#333333;strokeColor=#666666;" vertex="1" parent="1">
          <mxGeometry x="359" y="390" width="110" height="40" as="geometry" />
        </mxCell>
        <mxCell id="lyRp5M7gOsi5y-L0EEFk-18" value="" style="edgeStyle=orthogonalEdgeStyle;rounded=0;orthogonalLoop=1;jettySize=auto;html=1;" edge="1" parent="1" source="lyRp5M7gOsi5y-L0EEFk-15" target="lyRp5M7gOsi5y-L0EEFk-17">
          <mxGeometry relative="1" as="geometry" />
        </mxCell>
        <mxCell id="lyRp5M7gOsi5y-L0EEFk-15" value="n = 1" style="whiteSpace=wrap;html=1;fillColor=#f5f5f5;fontColor=#333333;strokeColor=#666666;" vertex="1" parent="1">
          <mxGeometry x="379" y="460" width="70" height="40" as="geometry" />
        </mxCell>
        <mxCell id="lyRp5M7gOsi5y-L0EEFk-23" value="" style="edgeStyle=orthogonalEdgeStyle;rounded=0;orthogonalLoop=1;jettySize=auto;html=1;" edge="1" parent="1" source="lyRp5M7gOsi5y-L0EEFk-17" target="lyRp5M7gOsi5y-L0EEFk-20">
          <mxGeometry relative="1" as="geometry" />
        </mxCell>
        <mxCell id="lyRp5M7gOsi5y-L0EEFk-31" style="edgeStyle=orthogonalEdgeStyle;rounded=0;orthogonalLoop=1;jettySize=auto;html=1;exitX=0;exitY=0.5;exitDx=0;exitDy=0;entryX=0;entryY=0.5;entryDx=0;entryDy=0;" edge="1" parent="1" source="lyRp5M7gOsi5y-L0EEFk-17" target="lyRp5M7gOsi5y-L0EEFk-29">
          <mxGeometry relative="1" as="geometry">
            <mxPoint x="210" y="1034.0000406901042" as="targetPoint" />
            <Array as="points">
              <mxPoint x="280" y="555" />
              <mxPoint x="280" y="860" />
            </Array>
          </mxGeometry>
        </mxCell>
        <mxCell id="lyRp5M7gOsi5y-L0EEFk-17" value="n &amp;lt;= index" style="rhombus;whiteSpace=wrap;html=1;fillColor=#d5e8d4;strokeColor=#82b366;" vertex="1" parent="1">
          <mxGeometry x="359" y="520" width="109" height="70" as="geometry" />
        </mxCell>
        <mxCell id="lyRp5M7gOsi5y-L0EEFk-26" value="" style="edgeStyle=orthogonalEdgeStyle;rounded=0;orthogonalLoop=1;jettySize=auto;html=1;" edge="1" parent="1" source="lyRp5M7gOsi5y-L0EEFk-20" target="lyRp5M7gOsi5y-L0EEFk-25">
          <mxGeometry relative="1" as="geometry" />
        </mxCell>
        <mxCell id="lyRp5M7gOsi5y-L0EEFk-20" value="pi_approx = pi_approx - a_n" style="whiteSpace=wrap;html=1;fillColor=#f5f5f5;fontColor=#333333;strokeColor=#666666;" vertex="1" parent="1">
          <mxGeometry x="329" y="630" width="170" height="40" as="geometry" />
        </mxCell>
        <mxCell id="lyRp5M7gOsi5y-L0EEFk-24" value="true" style="text;html=1;align=center;verticalAlign=middle;resizable=0;points=[];autosize=1;strokeColor=none;fillColor=none;" vertex="1" parent="1">
          <mxGeometry x="409" y="590" width="40" height="30" as="geometry" />
        </mxCell>
        <mxCell id="lyRp5M7gOsi5y-L0EEFk-28" value="" style="edgeStyle=orthogonalEdgeStyle;rounded=0;orthogonalLoop=1;jettySize=auto;html=1;" edge="1" parent="1" source="lyRp5M7gOsi5y-L0EEFk-25" target="lyRp5M7gOsi5y-L0EEFk-27">
          <mxGeometry relative="1" as="geometry" />
        </mxCell>
        <mxCell id="lyRp5M7gOsi5y-L0EEFk-25" value="n = n + 1" style="whiteSpace=wrap;html=1;fillColor=#f5f5f5;strokeColor=#666666;fontColor=#333333;" vertex="1" parent="1">
          <mxGeometry x="366" y="700" width="94" height="40" as="geometry" />
        </mxCell>
        <mxCell id="lyRp5M7gOsi5y-L0EEFk-33" style="edgeStyle=orthogonalEdgeStyle;rounded=0;orthogonalLoop=1;jettySize=auto;html=1;entryX=1;entryY=0.5;entryDx=0;entryDy=0;" edge="1" parent="1" source="lyRp5M7gOsi5y-L0EEFk-27" target="lyRp5M7gOsi5y-L0EEFk-17">
          <mxGeometry relative="1" as="geometry">
            <mxPoint x="560" y="520" as="targetPoint" />
            <Array as="points">
              <mxPoint x="560" y="790" />
              <mxPoint x="560" y="555" />
            </Array>
          </mxGeometry>
        </mxCell>
        <mxCell id="lyRp5M7gOsi5y-L0EEFk-27" value="a_n = 8/(16kÂ² - 1)" style="whiteSpace=wrap;html=1;fillColor=#f5f5f5;strokeColor=#666666;fontColor=#333333;" vertex="1" parent="1">
          <mxGeometry x="353.5" y="770" width="120" height="40" as="geometry" />
        </mxCell>
        <mxCell id="lyRp5M7gOsi5y-L0EEFk-35" value="" style="edgeStyle=orthogonalEdgeStyle;rounded=0;orthogonalLoop=1;jettySize=auto;html=1;" edge="1" parent="1" source="lyRp5M7gOsi5y-L0EEFk-29" target="lyRp5M7gOsi5y-L0EEFk-34">
          <mxGeometry relative="1" as="geometry" />
        </mxCell>
        <mxCell id="lyRp5M7gOsi5y-L0EEFk-29" value="Ausgabe pi_approx: Decimal" style="shape=parallelogram;perimeter=parallelogramPerimeter;whiteSpace=wrap;html=1;fixedSize=1;fillColor=#dae8fc;strokeColor=#6c8ebf;" vertex="1" parent="1">
          <mxGeometry x="319" y="840" width="190" height="40" as="geometry" />
        </mxCell>
        <mxCell id="lyRp5M7gOsi5y-L0EEFk-32" value="false" style="text;html=1;align=center;verticalAlign=middle;resizable=0;points=[];autosize=1;strokeColor=none;fillColor=none;" vertex="1" parent="1">
          <mxGeometry x="273" y="690" width="50" height="30" as="geometry" />
        </mxCell>
        <mxCell id="lyRp5M7gOsi5y-L0EEFk-34" value="Stop" style="ellipse;whiteSpace=wrap;html=1;fillColor=#f8cecc;strokeColor=#b85450;" vertex="1" parent="1">
          <mxGeometry x="373.5" y="930" width="81" height="60" as="geometry" />
        </mxCell>
      </root>
    </mxGraphModel>
  </diagram>
</mxfile>
